PathFileType	4	(X/Y/Z)	/Users/visionmauri/1_8_1_f_Sports2D/1_8_1_f_Sports2D_px_person00.trc
DataRate	CameraRate	NumFrames	NumMarkers	Units	OrigDataRate	OrigDataStartFrame	OrigNumFrames
30.0	30.0	5	22	m	30.0	44	358
Frame#	Time	Hip			RHip			RKnee			RAnkle			RBigToe			RSmallToe			RHeel			LHip			LKnee			LAnkle			LBigToe			LSmallToe			LHeel			Neck			Head			Nose			RShoulder			RElbow			RWrist			LShoulder			LElbow			LWrist			
		X1	Y1	Z1	X2	Y2	Z2	X3	Y3	Z3	X4	Y4	Z4	X5	Y5	Z5	X6	Y6	Z6	X7	Y7	Z7	X8	Y8	Z8	X9	Y9	Z9	X10	Y10	Z10	X11	Y11	Z11	X12	Y12	Z12	X13	Y13	Z13	X14	Y14	Z14	X15	Y15	Z15	X16	Y16	Z16	X17	Y17	Z17	X18	Y18	Z18	X19	Y19	Z19	X20	Y20	Z20	X21	Y21	Z21	X22	Y22	Z22
44	1.4707749766573295	562.305196394334	859.8181904726205	0.0	629.9667230323361	874.9482509138147	0.0	609.1217254736504	1180.9870312983462	0.0	572.3072712474321	1470.244429089462	0.0	551.5125153152284	1513.0729771317658	0.0	599.2744848279709	1528.786724272331	0.0	567.3898114905543	1518.3556130283332	0.0	487.27447194968283	867.1731366353491	0.0	483.4735702085957	1091.385492025917	0.0	465.82842352523994	1232.0528997189485	0.0	462.4213901789159	1529.3867135748208	0.0	427.84524661224606	1523.4160319556781	0.0	460.20308788435926	1264.4355838684655	0.0	579.2667163428422	480.04775711184965	0.0	579.2867639930568	374.26515022441737	0.0	585.9762232511312	440.982697969131	0.0	700.4828424450156	512.9181336584883	0.0	782.8884972211464	699.628385588669	0.0	797.0744037668542	857.3085938268172	0.0	454.83756385269595	490.209010096216	0.0	387.82912404621317	692.2708369278322	0.0	391.97402371874176	687.1436934948936	0.0
45	1.504201680672269	562.4450347570267	860.550733705767	0.0	629.8003295917075	876.2456948084532	0.0	608.6647061581502	1180.0209571970036	0.0	571.5868002265622	1470.267900096855	0.0	553.6658878655556	1513.7007762520216	0.0	599.9529697799245	1529.5799927868563	0.0	566.3193610575706	1519.1892897122975	0.0	487.1523534703792	868.204774931447	0.0	483.63459942209175	1090.3065203769506	0.0	460.3529252668091	1231.1311652590755	0.0	458.6856998608152	1521.3962687804647	0.0	423.10307514408817	1515.1688668599577	0.0	461.4198693729212	1264.3933486491671	0.0	580.7870402171317	480.30325372241737	0.0	580.5235547983808	375.3744945224035	0.0	586.4078736685673	441.14780159082477	0.0	700.6547345537302	514.8636993834737	0.0	781.376615940187	704.1545561108031	0.0	791.5760790420026	856.2792549514216	0.0	457.86662067315046	489.3385069794151	0.0	387.6858086749085	693.4573116585811	0.0	393.3152588216254	685.9889872615136	0.0
46	1.537628384687208	562.4755190312999	861.8125046640289	0.0	629.6027699593132	878.5664949427095	0.0	608.2309992721098	1180.9255797354429	0.0	571.1760344033092	1471.0420032286363	0.0	554.8541710848106	1513.8241986259347	0.0	598.6049034009978	1530.686954556162	0.0	565.5270736344073	1519.1433343370384	0.0	487.0612579954106	869.9430219809915	0.0	483.3686648251276	1087.3684179941504	0.0	462.78884637242646	1298.5626094760507	0.0	459.09517345102705	1499.9228497780832	0.0	425.5254342231886	1489.4935612252473	0.0	465.71885365345844	1343.0020830034682	0.0	581.9163702285075	480.1694293081907	0.0	581.6220149548612	375.4672076739807	0.0	586.1383466496814	441.24774226277987	0.0	700.5032977530099	517.16169638695	0.0	778.4067089455232	706.9589674022825	0.0	786.2387365868303	854.5718308400565	0.0	460.66365352767735	487.9956326587936	0.0	387.8386515412345	692.6219343232821	0.0	395.7975737871856	686.2762944230152	0.0
47	1.5710550887021475	562.0811956943188	863.1117158449334	0.0	629.4344489268293	881.3661413568627	0.0	608.3463316874202	1182.3154120695451	0.0	571.5004356410457	1473.1494182342742	0.0	553.7807259518194	1514.7785063310043	0.0	597.3256656626872	1533.3925814085114	0.0	564.6644104184296	1520.623113344155	0.0	486.8826161685559	872.3494702397063	0.0	482.79614814503367	1084.7811503614248	0.0	468.04080887143584	1355.3402786581146	0.0	460.2096595367137	1476.0702147818004	0.0	427.2734671679064	1460.0307995712556	0.0	470.65283906923645	1408.3653425849095	0.0	582.1251717960394	480.67228312759767	0.0	581.4652481251333	374.84873348612683	0.0	585.5585118906955	441.729447584186	0.0	700.8650498803197	519.9122371631745	0.0	775.3414440332207	710.8004031209468	0.0	781.3888580620617	852.6735080059128	0.0	461.6523838894513	488.1659768891623	0.0	388.5480883167129	691.0902191802767	0.0	396.62240182086657	684.9614376784111	0.0
48	1.604481792717087	560.6801769825405	863.9497806672756	0.0	628.8756862584547	884.0857240340815	0.0	608.891278815554	1183.8570835700345	0.0	571.7502596849479	1475.9518838504198	0.0	551.5006575890948	1516.7146780766998	0.0	597.0403487244498	1536.9843495275163	0.0	563.6052943470083	1522.7049563115102	0.0	486.4480877128921	874.7394058112355	0.0	482.2296600636754	1085.3452162036788	0.0	469.547099124031	1367.231593251935	0.0	460.2314499090674	1462.4611938634116	0.0	425.4840842527822	1443.5131398735846	0.0	472.2342311793702	1420.9256948428938	0.0	582.270110232107	481.21674774805365	0.0	579.7286913659424	374.47550245013775	0.0	584.8772973427938	443.3416488029529	0.0	702.3298018797158	522.6349352725452	0.0	774.1425837804692	717.213034872307	0.0	777.7983802403029	851.4919949264336	0.0	461.7228437462683	488.9375193400295	0.0	389.72468374962455	689.9331559072859	0.0	395.97198035582124	680.8892526734176	0.0
